# xmcd
#
# Track frame offsets: 
#        150
#        19585
#        35220
#        50266
#        65664
#        84917
#        99298
#        112007
#        125595
#        145381
#        161011
#        182389
#        200291
#        213728
#        230899
#        247509
#
# Disc length: 3567 seconds
#
# Revision: 2
# Processed by: cddbd v1.5.2PL0 Copyright (c) Steve Scherf et al.
# Submitted via: ExactAudioCopyFreeDBPlugin 1.0
#
DISCID=dc0ded10
DTITLE=Various Artist - New Country Rock Vol. 2
DYEAR=2010
DGENRE=Country
TTITLE0=John Campbelljohn - Kathaline
TTITLE1=Jackson Mac Kay - Why Do You Do Me This Way?
TTITLE2=Amy Clawson - God Created Woman
TTITLE3=Miko Marks - Freeway Bound
TTITLE4=Dean Collins - It's Always The Same Old Story
TTITLE5=Michael Holloway - Blues Hideaway
TTITLE6=Rick Monroe - Blues Skies
TTITLE7=David Frizzel and Joe Stampley - Music (Where Did I Come From?)
TTITLE8=The Tony Nash Trio - Heart Of Stone
TTITLE9=Cerish Alexander - For So long
TTITLE10=Charlie A'Court - Big Dark Canyon
TTITLE11=Steve Fister - Rise Above
TTITLE12=Chad Reilly - I Got The Time
TTITLE13=Collin Raye - Young As we're Ever going to be
TTITLE14=Irion - Sweet Little Baby
TTITLE15=Mark Selby - Tell The Truth
EXTD=
EXTT0=
EXTT1=
EXTT2=
EXTT3=
EXTT4=
EXTT5=
EXTT6=
EXTT7=
EXTT8=
EXTT9=
EXTT10=
EXTT11=
EXTT12=
EXTT13=
EXTT14=
EXTT15=
PLAYORDER=
